<svg width="49" height="49" viewBox="0 0 49 49" fill="none" xmlns="http://www.w3.org/2000/svg">
<path d="M23.3989 0.0339845C23.3054 0.0382324 22.9528 0.0679676 22.613 0.093455C18.3651 0.407799 14.0578 1.97952 10.5278 4.50277C9.35959 5.33535 8.4378 6.11697 7.40981 7.14495C1.50099 13.058 -0.933046 21.5198 0.914787 29.7394C1.67091 33.1123 3.28511 36.5063 5.42605 39.2335C8.78613 43.5196 13.3908 46.5399 18.5563 47.8482C20.659 48.3834 22.4049 48.6001 24.6095 48.6001C26.7844 48.6001 28.3859 48.4047 30.4589 47.8992C33.4366 47.1685 36.0533 45.9664 38.67 44.1355C41.1763 42.3769 43.5084 39.9131 45.1821 37.2582C47.34 33.8259 48.5676 30.0368 48.8692 25.8781C48.9329 25.003 48.8947 22.8366 48.8013 21.9446C48.6144 20.1732 48.1386 17.8369 47.8625 17.3483C47.752 17.1572 47.4419 16.9108 47.2125 16.8301C47.1318 16.8046 46.9534 16.7834 46.809 16.7834C46.1718 16.7834 45.6366 17.3144 45.6366 17.9388C45.6366 18.0875 45.7045 18.4443 45.8022 18.8309C46.6433 22.1017 46.7113 25.6955 45.9934 28.9748C45.0759 33.176 43.0284 36.8801 39.9402 39.9174C38.5001 41.3319 37.1111 42.3769 35.3142 43.4049C31.1215 45.805 25.9094 46.714 21.0201 45.8984C17.3074 45.2825 14.0832 43.8552 11.0205 41.4721C9.58048 40.3507 7.8261 38.5028 6.73864 36.9566C4.86108 34.2889 3.68016 31.4768 3.06847 28.2102C2.75837 26.545 2.65217 24.3361 2.7966 22.5393C3.01749 19.8121 3.7014 17.2804 4.86108 14.8803C5.39631 13.7631 5.72765 13.1812 6.36908 12.2169C7.67743 10.2374 9.41057 8.38534 11.3264 6.91557C13.5735 5.18668 16.2412 3.87408 18.9386 3.16893C20.3956 2.78662 21.5595 2.59546 23.0378 2.48927C28.3859 2.10696 33.5853 3.64469 37.8205 6.86884C38.1348 7.10672 38.4661 7.36584 38.5553 7.44655L38.7168 7.58674L38.653 7.76515C38.326 8.68269 38.5681 9.82537 39.2562 10.6239C39.6088 11.0317 40.246 11.414 40.7855 11.5415C41.1551 11.6307 41.7965 11.6307 42.1703 11.5415C43.1176 11.3163 44.0011 10.505 44.2815 9.60448C44.5958 8.59773 44.4132 7.60373 43.7675 6.79663C43.0539 5.90457 41.8262 5.50527 40.692 5.80262L40.4457 5.86634L40.0973 5.57748C38.6828 4.39232 36.9709 3.29637 35.1698 2.42555C32.2472 1.011 29.3119 0.250627 25.9688 0.0467281C25.3274 0.0084971 23.8109 1.34669e-06 23.3989 0.0339845Z" fill="#AFAFAF"/>
<path d="M20.8842 14.0095C20.434 15.1734 19.457 17.7222 18.7051 19.6719C17.9532 21.6217 16.4112 25.6275 15.277 28.5712C14.1471 31.515 13.2083 33.9363 13.1998 33.9533C13.1871 33.9746 14.3807 33.9873 15.8462 33.9873H18.5182L18.6753 33.5498C18.7645 33.3119 19.0789 32.4708 19.372 31.6807L19.9072 30.2492H23.9172C27.1117 30.2492 27.9272 30.2364 27.9145 30.1939C27.872 30.0792 27.2179 28.2102 26.8695 27.2119L26.4957 26.15L23.8408 26.1287L21.1901 26.1075L22.9147 21.3541C23.9512 18.4995 24.6521 16.6305 24.6649 16.6729C24.6819 16.7112 25.37 18.6694 26.1984 21.0228C27.0267 23.3761 28.3945 27.2502 29.2356 29.6332L30.7606 33.9661L33.4198 33.9788C34.881 33.983 36.079 33.9788 36.079 33.9703C36.079 33.9618 35.7349 33.057 35.3101 31.9653C34.8853 30.8694 33.9762 28.5118 33.2881 26.7234C32.5999 24.9351 31.8268 22.9301 31.5677 22.2631C31.3128 21.5962 30.8668 20.4408 30.5779 19.6932C30.2891 18.9455 29.5372 16.9873 28.9 15.3391C28.2628 13.6909 27.7064 12.2424 27.6596 12.1192L27.5789 11.8983H21.6956L20.8842 14.0095Z" fill="#AFAFAF"/>
</svg>
