<svg width="50" height="50" viewBox="0 0 50 50" fill="none" xmlns="http://www.w3.org/2000/svg">
<path d="M26.9264 49.9125C27.043 49.9002 27.4175 49.8573 27.7552 49.8266C32.5563 49.3231 37.2837 47.291 41.1393 44.0616C41.8514 43.4722 43.4723 41.8514 44.0617 41.1392C47.2542 37.3265 49.1206 33.0474 49.8082 27.9823C49.9617 26.8588 49.9617 23.0645 49.8082 21.941C49.1206 16.8759 47.2542 12.5968 44.0617 8.78405C43.4723 8.07195 41.8514 6.45105 41.1393 5.86165C37.3267 2.66915 33.0474 0.80275 27.9824 0.11515C26.8588 -0.0383496 23.0646 -0.0383496 21.9411 0.11515C16.876 0.80275 12.5968 2.66915 8.78417 5.86165C8.07197 6.45105 6.45117 8.07195 5.86177 8.78405C2.66927 12.5968 0.802869 16.8759 0.11517 21.941C-0.0383305 23.0645 -0.0383305 26.8588 0.11517 27.9823C0.802869 33.0474 2.66927 37.3265 5.86177 41.1392C6.45117 41.8514 8.07197 43.4722 8.78417 44.0616C12.5845 47.2418 16.9067 49.1328 21.9043 49.802C22.4446 49.8757 23.2304 49.9064 24.6855 49.9187C25.7967 49.9309 26.8097 49.9248 26.9264 49.9125ZM26.6194 47.2603C26.6194 46.5419 26.5703 44.9825 26.5028 43.5029C26.4659 42.7784 26.4229 41.7409 26.4045 41.2006C26.337 39.2851 26.1344 34.2569 26.1037 33.8087L26.073 33.3605L26.3493 33.3911C26.5028 33.4034 26.644 33.4403 26.6685 33.4587C26.6869 33.4833 26.7299 33.9069 26.7545 34.4042C26.865 36.5898 27.2272 45.0685 27.2641 46.3086L27.3009 47.6716L27.129 47.6962C27.0369 47.7084 26.8834 47.7269 26.7852 47.733L26.6194 47.7391V47.2603ZM20.7439 47.4076C20.7378 47.4015 20.7194 45.5473 20.7009 43.288C20.6764 41.0225 20.6457 38.9904 20.6273 38.7694C20.6088 38.5422 20.615 38.3458 20.6457 38.3335C20.6702 38.3151 20.8237 38.3151 20.9772 38.3335L21.2596 38.3581L21.3026 40.1446C21.3272 41.1331 21.3579 42.2259 21.3701 42.582C21.4193 43.6687 21.4622 47.3585 21.4254 47.4506C21.4008 47.5181 21.3333 47.5243 21.0754 47.4813C20.8974 47.4445 20.7501 47.4138 20.7439 47.4076ZM34.9446 45.3509C34.9077 45.2956 34.6192 41.9128 34.2631 37.4861C34.1464 35.982 34.0298 34.6067 34.0114 34.4348C33.9807 34.1217 33.9868 34.1095 34.1833 33.9867C34.2938 33.9192 34.4043 33.8638 34.4288 33.8638C34.4473 33.8638 34.4841 34.0235 34.5025 34.2199C34.5885 35.0181 34.92 38.8737 35.1533 41.661C35.2884 43.3003 35.4112 44.7676 35.4296 44.9273C35.4603 45.1974 35.4541 45.2219 35.2945 45.3079C35.098 45.4123 34.9875 45.4307 34.9446 45.3509ZM18.0425 44.1168C17.8706 44.0554 17.8522 44.0247 17.8154 43.6748C17.754 43.0608 17.7724 40.1262 17.8399 40.1262C18.018 40.1262 18.3864 40.3349 18.417 40.4516C18.4355 40.5252 18.4539 41.397 18.4539 42.3855C18.4539 44.3808 18.4784 44.2642 18.0425 44.1168ZM29.3822 43.8283C29.3822 43.6625 29.3392 42.7477 29.2901 41.7838C29.241 40.8199 29.1857 39.5982 29.1612 39.0702C29.1182 38.002 29.1059 38.0387 29.5172 38.0141C29.7198 38.008 29.7198 38.0081 29.7321 38.3151C29.7444 38.487 29.7751 39.021 29.8119 39.5122C29.8426 40.0034 29.9163 41.0655 29.9654 41.8759C30.0145 42.6863 30.0759 43.4906 30.0944 43.6625C30.1312 43.9695 30.1251 43.9818 29.9593 44.0432C29.8611 44.08 29.6891 44.1107 29.5786 44.1107C29.3822 44.1168 29.3822 44.1168 29.3822 43.8283ZM12.3512 42.9872L12.1425 42.9012L12.0995 42.0785C12.0811 41.6304 12.0688 40.6603 12.0811 39.9298L12.0995 38.5914L12.3574 38.7203L12.6152 38.8431L12.6336 40.8813C12.6459 42.0049 12.6398 42.9565 12.6275 42.9995C12.6029 43.0916 12.6029 43.0916 12.3512 42.9872ZM23.5619 42.1829C23.5251 42.1461 23.4391 39.1685 23.433 37.6581L23.4269 36.7494L23.7154 36.7924C23.8812 36.8108 24.0163 36.8293 24.0224 36.8355C24.0408 36.8477 24.225 41.3971 24.225 41.8391V42.2934L23.9119 42.2566C23.7338 42.232 23.5804 42.2013 23.5619 42.1829ZM9.42267 41.747C9.34897 41.661 9.33667 40.3165 9.31827 32.9C9.29987 24.3846 9.29987 24.1635 9.41037 24.1635C9.47797 24.1635 9.56997 24.2004 9.62527 24.2434C9.71737 24.3109 9.72967 25.0538 9.76037 32.3291C9.78487 36.7372 9.81557 40.7401 9.83397 41.2251L9.87087 42.1092L9.69277 41.9803C9.58847 41.9066 9.47177 41.8023 9.42267 41.747ZM14.9298 40.4884C14.8991 40.4639 14.8684 40.1139 14.8623 39.7149C14.8316 38.3581 14.8254 30.039 14.8561 30.0145C14.8684 30.0022 14.9789 30.0328 15.1017 30.0819L15.3227 30.174V40.6173L15.1508 40.5805C15.0587 40.5559 14.9605 40.5191 14.9298 40.4884ZM31.8748 40.1446C31.8564 39.9788 31.8257 39.6043 31.8073 39.2973C31.7889 38.9965 31.7459 38.3088 31.709 37.7747C31.6354 36.6942 31.6476 36.6266 31.9976 36.6266C32.1818 36.6266 32.2063 36.6451 32.2309 36.8293C32.2923 37.1915 32.5072 40.2121 32.4765 40.2612C32.4458 40.3042 32.1265 40.4147 31.9792 40.427C31.9423 40.4332 31.8932 40.3042 31.8748 40.1446ZM42.0295 38.5791C41.962 37.9283 41.8269 36.5652 41.7287 35.5522C41.6243 34.5392 41.5383 33.6798 41.5383 33.6429C41.5383 33.5693 42.0111 33.3359 42.0602 33.385C42.0909 33.4157 42.7048 38.8492 42.7048 39.0948C42.7048 39.2421 42.2321 39.8622 42.1707 39.7947C42.1523 39.7824 42.0909 39.236 42.0295 38.5791ZM17.9566 37.9344L17.7785 37.8301L17.7724 36.5038C17.7663 35.7794 17.754 34.9691 17.754 34.7051C17.7417 34.1525 17.8092 34.0603 18.1408 34.177L18.3311 34.2445V34.7725C18.3311 35.0672 18.3495 35.9206 18.3741 36.6757L18.4109 38.0387H18.2697C18.196 38.0387 18.0548 37.9897 17.9566 37.9344ZM39.3343 35.5522C39.2238 34.3734 39.0457 32.3842 38.9291 31.1318L38.7203 28.8603L38.9598 28.6208L39.1931 28.3813L39.2361 28.8664C39.2606 29.1365 39.3834 30.389 39.5123 31.6537C39.6413 32.9185 39.8254 34.7542 39.9175 35.7304L40.0894 37.4985L39.85 37.7194C39.6351 37.922 39.6106 37.9282 39.5676 37.8177C39.543 37.7563 39.4387 36.7371 39.3343 35.5522ZM43.9327 34.8094C43.7977 33.5999 43.4416 30.3828 43.1346 27.663C42.8276 24.9432 42.5391 22.3217 42.4838 21.8305C42.4347 21.3394 42.3487 20.5964 42.2996 20.1728C42.2137 19.4545 42.2137 19.4054 42.3119 19.3318C42.4593 19.2213 42.5206 19.2334 42.5206 19.3624C42.5206 19.4176 42.5759 19.8843 42.6434 20.3878C42.7539 21.2289 42.9381 22.6532 43.3495 25.8519C43.4354 26.4966 43.6012 27.7797 43.7178 28.7068C43.8406 29.6338 44.0187 31.0151 44.1169 31.7764C44.2151 32.5377 44.3809 33.8394 44.4853 34.6805C44.5958 35.5155 44.6633 36.2583 44.6449 36.3382C44.6019 36.5039 44.2397 37.081 44.2029 37.0442C44.1906 37.0258 44.0678 36.025 43.9327 34.8094ZM45.8114 32.1632C45.7193 31.4265 45.5474 30.082 45.4308 29.1672C45.3141 28.2586 45.1668 27.1228 45.0992 26.65L44.9826 25.7905L45.1115 25.68C45.1852 25.6186 45.2589 25.594 45.2834 25.6185C45.308 25.6431 45.3571 25.8887 45.3939 26.1588C45.4308 26.4289 45.6579 28.0069 45.9035 29.6583L46.3394 32.6667L46.1982 33.0842C46.1245 33.3114 46.0447 33.4956 46.0263 33.4956C46.0017 33.4956 45.9096 32.8938 45.8114 32.1632ZM12.1057 32.9676C12.0197 32.8816 12.0074 32.501 12.0074 29.683V26.4965H12.1793C12.5538 26.4965 12.5477 26.4044 12.5723 29.8916L12.5907 33.0658H12.3942C12.2898 33.0658 12.1548 33.0228 12.1057 32.9676ZM25.545 31.8685C24.1575 31.6598 22.948 31.2731 21.7508 30.659C20.9772 30.26 20.6088 29.9838 19.7493 29.1611C18.4723 27.9393 17.6864 26.8711 16.9497 25.3608C15.8753 23.1628 15.4578 21.2166 14.9298 15.998C14.6904 13.6589 14.3773 9.41645 14.3097 7.67895C14.2913 7.17555 14.2483 6.34675 14.2115 5.83715C14.144 4.75655 14.0641 4.90395 15.0158 4.44345C16.3358 3.80495 17.6066 3.36295 19.2827 2.95155C21.3333 2.44815 22.6594 2.28855 24.6855 2.28235L26.1589 2.27625L26.1467 2.98225C26.1467 3.36905 26.1098 4.27155 26.073 4.97755C25.8888 8.39725 25.9256 12.7134 26.1651 15.1077C26.3002 16.483 26.5641 18.153 26.7115 18.5214C26.7422 18.6012 26.601 18.6687 25.9932 18.8775C24.8819 19.2642 23.918 19.7492 23.7707 19.9886C23.5067 20.4429 23.9794 21.0937 24.5811 21.0937C24.6855 21.0937 24.9986 20.9833 25.2871 20.8544C26.6624 20.222 29.419 19.4791 31.0091 19.3134C32.1081 19.1967 33.8149 19.2641 34.9998 19.479C35.6445 19.5957 36.7987 20.0316 37.7626 20.5289C38.8738 21.106 39.5553 21.8735 39.7579 22.7822C39.8684 23.2733 39.8377 24.2555 39.6965 24.8081C39.543 25.4159 39.1133 26.3001 38.7203 26.8158C36.9706 29.1181 33.3606 31.1135 29.6585 31.8134C28.4797 32.0344 26.8097 32.0588 25.545 31.8685ZM6.60467 31.6782C6.38357 31.5861 6.35907 31.5615 6.35907 31.3528C6.34677 29.6767 6.38367 25.8458 6.41427 25.6861C6.42047 25.6309 6.73967 25.6248 6.87477 25.6739C6.96077 25.7046 6.97297 26.036 6.97297 28.7435C6.97297 30.6836 6.94847 31.7764 6.91157 31.7764C6.88087 31.7764 6.73967 31.7334 6.60467 31.6782ZM3.92167 28.3076L3.70067 28.2155L3.74367 23.132C3.79277 16.6549 3.79887 16.4645 4.03217 15.9058C4.41287 14.9911 4.39447 14.8069 4.35757 18.8221C4.34527 20.8297 4.31457 22.862 4.30237 23.3347C4.29007 23.8075 4.27777 25.1397 4.27167 26.3001C4.27167 27.6999 4.25317 28.3997 4.21027 28.3997C4.17337 28.3997 4.04447 28.3567 3.92167 28.3076ZM40.8446 26.7789C40.8077 26.2816 40.82 26.2326 40.9981 25.8396L41.1945 25.4221L41.2682 26.0361C41.3848 27.0184 41.3849 27.0614 41.1516 27.2087C41.0472 27.2824 40.9367 27.3315 40.9182 27.3193C40.8998 27.307 40.863 27.0613 40.8446 26.7789ZM44.6388 23.0769C44.5835 22.5734 44.1538 19.2334 43.9327 17.5942C43.6012 15.0586 43.5766 14.6964 43.724 14.8498C43.7424 14.8683 43.8836 15.7218 44.031 16.7471C44.9887 23.3654 44.9826 23.3223 44.9028 23.3715C44.737 23.482 44.6818 23.4207 44.6388 23.0769ZM40.2183 20.2649C40.1815 20.1114 40.0035 18.4477 40.0035 18.2451C40.0035 18.0732 40.2245 17.9135 40.3227 18.0117C40.3534 18.0424 40.4332 18.5643 40.4946 19.166C40.5622 19.7738 40.6297 20.4062 40.6481 20.572L40.6849 20.8789L40.4701 20.6332C40.3473 20.4982 40.2368 20.3324 40.2183 20.2649ZM35.2638 17.9503C35.1963 17.8889 35.1533 17.6434 35.098 16.9804C35.0059 15.7832 34.9937 15.8751 35.2454 15.8751C35.5032 15.8751 35.4971 15.8568 35.5831 16.9374C35.669 18.0363 35.669 18.024 35.5032 18.024C35.4234 18.024 35.3191 17.9871 35.2638 17.9503ZM30.4013 17.8582C30.3891 17.7968 30.3584 17.4284 30.3338 17.0416C30.3154 16.6549 30.2601 15.7831 30.211 15.1077C30.0391 12.6274 30.033 12.3143 30.1373 12.3143C30.254 12.3143 30.2663 12.4064 30.4013 14.1562C30.4504 14.8806 30.5425 16.0225 30.6039 16.6917C30.6592 17.3609 30.696 17.9196 30.6776 17.9319C30.6101 18.0055 30.432 17.9503 30.4013 17.8582ZM41.9435 16.6795C41.9067 16.6243 41.6734 14.6596 41.3848 11.9767C41.2989 11.1663 41.2129 10.3865 41.1945 10.2392L41.1638 9.97515L41.3173 10.0733C41.434 10.1531 41.4769 10.233 41.4769 10.3742C41.4769 10.761 41.7409 13.3089 41.9435 14.8684C42.0602 15.7525 42.1523 16.5322 42.1523 16.6058C42.1523 16.7348 42.0049 16.7839 41.9435 16.6795ZM6.51257 14.1132L6.55557 11.5468L6.70897 11.3196C7.05897 10.8039 7.04057 10.7058 7.02217 13.5791L7.00987 16.2128L6.78267 16.4462C6.65987 16.569 6.53707 16.6734 6.51257 16.6734C6.49417 16.6734 6.49417 15.5192 6.51257 14.1132ZM12.1916 10.0426C12.1609 6.47565 12.167 6.19935 12.2653 6.08885C12.3267 6.02135 12.3819 5.97835 12.4003 5.99675C12.4433 6.04585 12.5047 13.8246 12.4556 13.8675C12.431 13.8921 12.3697 13.9045 12.3144 13.8983C12.2346 13.8799 12.2162 13.4439 12.1916 10.0426ZM32.2432 12.4861C32.2002 12.1055 32.0467 10.2822 31.9853 9.42255C31.9485 8.84545 31.9485 8.82705 32.0835 8.78405C32.1572 8.75955 32.2432 8.76565 32.2677 8.79635C32.3107 8.83935 32.4458 10.2024 32.6115 12.3021L32.6545 12.8055H32.4642C32.2862 12.8055 32.2739 12.7931 32.2432 12.4861ZM37.0688 10.3373C37.0258 10.2943 36.9951 10.1409 36.9951 9.98745C36.9951 9.82775 36.9215 8.99895 36.8417 8.13945C36.6084 5.78805 36.5899 5.46875 36.6943 5.53015C36.8539 5.62225 36.9951 5.76345 36.9644 5.80025C36.9522 5.82485 36.9767 6.13185 37.0258 6.48175C37.0688 6.83785 37.1241 7.41495 37.1486 7.77105C37.1732 8.12715 37.2284 8.77795 37.2776 9.21385C37.3942 10.2883 37.3881 10.411 37.253 10.411C37.1916 10.411 37.1118 10.3803 37.0688 10.3373ZM34.1648 6.20545C34.1464 6.07045 34.1096 5.56695 34.085 5.08815C34.042 4.16715 34.0605 4.09965 34.3122 4.28995C34.3859 4.34525 34.435 4.57855 34.5086 5.27845C34.6376 6.54315 34.6437 6.49405 34.4043 6.46945C34.2262 6.45105 34.2017 6.42655 34.1648 6.20545Z" fill="white"/>
<path d="M36.3566 28.9278C36.9951 28.6516 37.0442 27.7859 36.4425 27.4789C36.0066 27.2579 35.5646 27.3623 35.3374 27.7429C34.9077 28.4428 35.6076 29.2532 36.3566 28.9278ZM32.194 28.3385C32.7834 27.9762 32.7834 27.1044 32.194 26.7422C31.6107 26.3922 30.8556 26.8527 30.8556 27.5526C30.8556 28.2279 31.6292 28.6823 32.194 28.3385Z" fill="white"/>
</svg>
