<svg width="49" height="49" viewBox="0 0 49 49" fill="ffffff" xmlns="http://www.w3.org/2000/svg">
<path d="M23.3989 0.0340455C23.3054 0.0382934 22.9528 0.0680286 22.613 0.093516C18.3651 0.40786 14.0578 1.97958 10.5278 4.50283C9.35959 5.33541 8.4378 6.11703 7.40981 7.14501C1.50099 13.0581 -0.933046 21.5199 0.914787 29.7395C1.67091 33.1124 3.28511 36.5064 5.42605 39.2336C8.78613 43.5197 13.3908 46.54 18.5563 47.8483C20.659 48.3835 22.4049 48.6002 24.6095 48.6002C26.7844 48.6002 28.3859 48.4048 30.4589 47.8993C33.4366 47.1686 36.0533 45.9665 38.67 44.1356C41.1763 42.377 43.5084 39.9132 45.1821 37.2583C47.34 33.826 48.5676 30.0369 48.8692 25.8782C48.9329 25.0031 48.8947 22.8367 48.8013 21.9447C48.6144 20.1733 48.1386 17.837 47.8625 17.3484C47.752 17.1573 47.4419 16.9109 47.2125 16.8302C47.1318 16.8047 46.9534 16.7835 46.809 16.7835C46.1718 16.7835 45.6366 17.3145 45.6366 17.9389C45.6366 18.0876 45.7045 18.4444 45.8022 18.831C46.6433 22.1018 46.7113 25.6956 45.9934 28.9749C45.0759 33.1761 43.0284 36.8802 39.9402 39.9175C38.5001 41.332 37.1111 42.377 35.3142 43.405C31.1215 45.8051 25.9094 46.7141 21.0201 45.8985C17.3074 45.2826 14.0832 43.8553 11.0205 41.4722C9.58048 40.3508 7.8261 38.5029 6.73864 36.9567C4.86108 34.289 3.68016 31.4769 3.06847 28.2103C2.75837 26.5451 2.65217 24.3362 2.7966 22.5394C3.01749 19.8122 3.7014 17.2805 4.86108 14.8804C5.39631 13.7632 5.72765 13.1813 6.36908 12.217C7.67743 10.2375 9.41057 8.3854 11.3264 6.91563C13.5735 5.18674 16.2412 3.87414 18.9386 3.16899C20.3956 2.78668 21.5595 2.59552 23.0378 2.48933C28.3859 2.10702 33.5853 3.64475 37.8205 6.8689C38.1348 7.10678 38.4661 7.3659 38.5553 7.44661L38.7168 7.5868L38.653 7.76521C38.326 8.68275 38.5681 9.82543 39.2562 10.624C39.6088 11.0318 40.246 11.4141 40.7855 11.5416C41.1551 11.6308 41.7965 11.6308 42.1703 11.5416C43.1176 11.3164 44.0011 10.5051 44.2815 9.60454C44.5958 8.59779 44.4132 7.60379 43.7675 6.79669C43.0539 5.90463 41.8262 5.50533 40.692 5.80268L40.4457 5.8664L40.0973 5.57754C38.6828 4.39238 36.9709 3.29643 35.1698 2.42561C32.2472 1.01106 29.3119 0.250688 25.9688 0.0467891C25.3274 0.00855813 23.8109 6.23768e-05 23.3989 0.0340455V0.0340455Z" fill="ffffff"/>
<path d="M20.8842 14.0095C20.434 15.1734 19.457 17.7222 18.7051 19.6719C17.9532 21.6217 16.4112 25.6275 15.277 28.5712C14.1471 31.515 13.2083 33.9363 13.1998 33.9533C13.1871 33.9746 14.3807 33.9873 15.8462 33.9873H18.5182L18.6753 33.5498C18.7645 33.3119 19.0789 32.4708 19.372 31.6807L19.9072 30.2492H23.9172C27.1117 30.2492 27.9272 30.2364 27.9145 30.1939C27.872 30.0792 27.2179 28.2102 26.8695 27.2119L26.4957 26.15L23.8408 26.1287L21.1901 26.1075L22.9147 21.3541C23.9512 18.4995 24.6521 16.6305 24.6649 16.6729C24.6819 16.7112 25.37 18.6694 26.1984 21.0228C27.0267 23.3761 28.3945 27.2502 29.2356 29.6332L30.7606 33.9661L33.4198 33.9788C34.881 33.983 36.079 33.9788 36.079 33.9703C36.079 33.9618 35.7349 33.057 35.3101 31.9653C34.8853 30.8694 33.9762 28.5118 33.2881 26.7234C32.5999 24.9351 31.8268 22.9301 31.5677 22.2631C31.3128 21.5962 30.8668 20.4408 30.5779 19.6932C30.2891 18.9455 29.5372 16.9873 28.9 15.3391C28.2628 13.6909 27.7064 12.2424 27.6596 12.1192L27.5789 11.8983H21.6956L20.8842 14.0095Z" fill="ffffff"/>
</svg>
