<svg width="50" height="50" viewBox="0 0 50 50" fill="000000" xmlns="http://www.w3.org/2000/svg">
<path d="M23.0353 0.0338286C22.9187 0.0461076 22.5442 0.0890841 22.2065 0.119782C17.4054 0.62322 12.678 2.65539 8.8224 5.88476C8.11022 6.47415 6.4894 8.09498 5.90001 8.80716C2.70747 12.6198 0.841068 16.899 0.153445 21.9641C-4.17274e-05 23.0876 -4.17274e-05 26.8818 0.153445 28.0053C0.841068 33.0704 2.70747 37.3496 5.90001 41.1623C6.4894 41.8744 8.11022 43.4953 8.8224 44.0847C12.635 47.2772 16.9143 49.1436 21.9793 49.8312C23.1029 49.9847 26.8971 49.9847 28.0206 49.8312C33.0857 49.1436 37.3649 47.2772 41.1775 44.0847C41.8897 43.4953 43.5105 41.8744 44.0999 41.1623C47.2924 37.3496 49.1588 33.0704 49.8465 28.0053C50 26.8818 50 23.0876 49.8465 21.9641C49.1588 16.899 47.2924 12.6198 44.0999 8.80716C43.5105 8.09498 41.8897 6.47415 41.1775 5.88476C37.3772 2.70451 33.055 0.813544 28.0574 0.14434C27.5171 0.0706657 26.7313 0.0399682 25.2762 0.0276892C24.165 0.0154102 23.152 0.0215496 23.0353 0.0338286V0.0338286ZM23.3423 2.68609C23.3423 3.40441 23.3914 4.96384 23.4589 6.44346C23.4958 7.16792 23.5388 8.20549 23.5572 8.74576C23.6247 10.6613 23.8273 15.6895 23.858 16.1377L23.8887 16.5859L23.6124 16.5552C23.4589 16.5429 23.3177 16.5061 23.2932 16.4877C23.2748 16.4631 23.2318 16.0395 23.2072 15.5422C23.0967 13.3565 22.7345 4.87789 22.6976 3.63771L22.6608 2.27474L22.8327 2.25018C22.9248 2.23791 23.0783 2.21949 23.1765 2.21335L23.3423 2.20721V2.68609ZM29.2178 2.53874C29.2239 2.54488 29.2423 4.39901 29.2608 6.65834C29.2853 8.92381 29.316 10.956 29.3344 11.177C29.3529 11.4042 29.3467 11.6006 29.316 11.6129C29.2915 11.6313 29.138 11.6313 28.9845 11.6129L28.7021 11.5883L28.6591 9.80176C28.6345 8.8133 28.6038 7.72047 28.5916 7.36438C28.5424 6.27769 28.4995 2.58786 28.5363 2.49576C28.5609 2.42823 28.6284 2.42209 28.8863 2.46507C29.0643 2.5019 29.2116 2.5326 29.2178 2.53874V2.53874ZM15.0171 4.59547C15.054 4.65072 15.3425 8.03358 15.6986 12.4602C15.8153 13.9643 15.9319 15.3396 15.9503 15.5115C15.981 15.8246 15.9749 15.8369 15.7784 15.9597C15.6679 16.0272 15.5574 16.0825 15.5329 16.0825C15.5144 16.0825 15.4776 15.9228 15.4592 15.7264C15.3732 14.9282 15.0417 11.0726 14.8084 8.2853C14.6733 6.64606 14.5505 5.17872 14.5321 5.01909C14.5014 4.74896 14.5076 4.7244 14.6672 4.63845C14.8637 4.53407 14.9742 4.51566 15.0171 4.59547V4.59547ZM31.9192 5.82951C32.0911 5.8909 32.1095 5.9216 32.1463 6.27155C32.2077 6.8855 32.1893 9.82017 32.1218 9.82017C31.9437 9.82017 31.5753 9.61143 31.5447 9.49478C31.5262 9.42111 31.5078 8.5493 31.5078 7.56084C31.5078 5.56551 31.4833 5.68216 31.9192 5.82951V5.82951ZM20.5795 6.11806C20.5795 6.28383 20.6225 7.19861 20.6716 8.16251C20.7207 9.12641 20.776 10.3482 20.8005 10.8762C20.8435 11.9444 20.8558 11.9076 20.4445 11.9322C20.2419 11.9383 20.2419 11.9383 20.2296 11.6313C20.2173 11.4594 20.1866 10.9253 20.1498 10.4341C20.1191 9.94296 20.0454 8.88083 19.9963 8.07042C19.9472 7.26001 19.8858 6.45573 19.8673 6.28383C19.8305 5.97685 19.8366 5.96458 20.0024 5.90318C20.1006 5.86634 20.2726 5.83565 20.3831 5.83565C20.5795 5.82951 20.5795 5.82951 20.5795 6.11806V6.11806ZM37.6105 6.95917L37.8192 7.04513L37.8622 7.86782C37.8806 8.316 37.8929 9.28604 37.8806 10.0166L37.8622 11.355L37.6043 11.2261L37.3465 11.1033L37.3281 9.06502C37.3158 7.94149 37.3219 6.98987 37.3342 6.94689C37.3588 6.8548 37.3588 6.8548 37.6105 6.95917ZM26.3998 7.76345C26.4366 7.80028 26.5226 10.7779 26.5287 12.2883L26.5348 13.1969L26.2463 13.1539C26.0805 13.1355 25.9454 13.1171 25.9393 13.1109C25.9209 13.0987 25.7367 8.5493 25.7367 8.10726V7.65293L26.0498 7.68977C26.2279 7.71433 26.3813 7.74503 26.3998 7.76345V7.76345ZM40.539 8.19935C40.6127 8.2853 40.625 9.62985 40.6434 17.0464C40.6618 25.5618 40.6618 25.7828 40.5513 25.7828C40.4837 25.7828 40.3917 25.746 40.3364 25.703C40.2443 25.6355 40.232 24.8926 40.2013 17.6173C40.1768 13.2092 40.1461 9.20623 40.1277 8.72121L40.0908 7.83712L40.2689 7.96605C40.3732 8.03972 40.4899 8.14409 40.539 8.19935V8.19935ZM35.0319 9.45795C35.0626 9.4825 35.0933 9.83245 35.0994 10.2315C35.1301 11.5883 35.1363 19.9074 35.1056 19.9319C35.0933 19.9442 34.9828 19.9135 34.86 19.8644L34.639 19.7723V9.32902L34.8109 9.36585C34.903 9.39041 35.0012 9.42725 35.0319 9.45795V9.45795ZM18.0869 9.80176C18.1053 9.96752 18.136 10.342 18.1544 10.649C18.1728 10.9498 18.2158 11.6375 18.2527 12.1716C18.3263 13.2521 18.3141 13.3197 17.9641 13.3197C17.7799 13.3197 17.7554 13.3013 17.7308 13.1171C17.6694 12.7549 17.4545 9.73422 17.4852 9.68511C17.5159 9.64213 17.8352 9.53162 17.9825 9.51934C18.0194 9.5132 18.0685 9.64213 18.0869 9.80176V9.80176ZM7.93218 11.3673C7.99971 12.0181 8.13478 13.3811 8.23301 14.3941C8.33738 15.4071 8.42334 16.2666 8.42334 16.3035C8.42334 16.3771 7.9506 16.6104 7.90148 16.5613C7.87078 16.5306 7.25683 11.0972 7.25683 10.8516C7.25683 10.7043 7.72957 10.0842 7.79097 10.1517C7.80939 10.164 7.87078 10.7104 7.93218 11.3673V11.3673ZM32.0051 12.012L32.1832 12.1163L32.1893 13.4425C32.1954 14.1669 32.2077 14.9773 32.2077 15.2413C32.22 15.7939 32.1525 15.886 31.8209 15.7693L31.6306 15.7018V15.1738C31.6306 14.8791 31.6122 14.0257 31.5876 13.2706L31.5508 11.9076H31.692C31.7657 11.9076 31.9069 11.9567 32.0051 12.012V12.012ZM10.6274 14.3941C10.7379 15.5729 10.916 17.5621 11.0326 18.8145L11.2414 21.0861L11.0019 21.3256L10.7686 21.565L10.7256 21.08C10.7011 20.8099 10.5783 19.5574 10.4494 18.2927C10.3204 17.0279 10.1363 15.1922 10.0442 14.216L9.87226 12.4479L10.1117 12.2269C10.3266 12.0243 10.3511 12.0181 10.3941 12.1286C10.4187 12.19 10.523 13.2092 10.6274 14.3941V14.3941ZM6.02894 15.137C6.164 16.3465 6.5201 19.5635 6.82707 22.2833C7.13404 25.0031 7.4226 27.6247 7.47786 28.1159C7.52697 28.607 7.61292 29.3499 7.66204 29.7735C7.74799 30.4918 7.74799 30.541 7.64976 30.6146C7.50241 30.7251 7.44102 30.7129 7.44102 30.5839C7.44102 30.5287 7.38576 30.0621 7.31823 29.5586C7.20772 28.7175 7.02353 27.2932 6.61219 24.0945C6.52623 23.4498 6.36047 22.1667 6.24382 21.2396C6.12103 20.3126 5.94298 18.9312 5.84475 18.1699C5.74652 17.4086 5.58075 16.107 5.47638 15.2659C5.36587 14.4309 5.29834 13.6881 5.31676 13.6082C5.35973 13.4425 5.72196 12.8654 5.7588 12.9022C5.77108 12.9206 5.89387 13.9214 6.02894 15.137V15.137ZM4.15025 17.7831C4.24234 18.5198 4.41425 19.8644 4.5309 20.7792C4.64755 21.6878 4.7949 22.8236 4.86243 23.2964L4.97908 24.1559L4.85015 24.2664C4.77648 24.3278 4.70281 24.3523 4.67825 24.3278C4.65369 24.3032 4.60457 24.0576 4.56774 23.7875C4.5309 23.5174 4.30374 21.9395 4.05816 20.288L3.62226 17.2797L3.76347 16.8622C3.83714 16.635 3.91695 16.4508 3.93537 16.4508C3.95993 16.4508 4.05202 17.0525 4.15025 17.7831ZM37.856 16.9788C37.942 17.0648 37.9543 17.4454 37.9543 20.2634V23.4498H37.7824C37.4079 23.4498 37.414 23.5419 37.3894 20.0547L37.371 16.8806H37.5675C37.6719 16.8806 37.8069 16.9236 37.856 16.9788V16.9788ZM24.4167 18.0778C25.8042 18.2865 27.0137 18.6733 28.2109 19.2873C28.9845 19.6863 29.3529 19.9626 30.2124 20.7853C31.4894 22.0071 32.2753 23.0753 33.012 24.5856C34.0864 26.7836 34.5039 28.7298 35.0319 33.9484C35.2713 36.2875 35.5844 40.5299 35.652 42.2674C35.6704 42.7708 35.7134 43.5996 35.7502 44.1092C35.8177 45.1898 35.8976 45.0424 34.9459 45.5029C33.6259 46.1414 32.3551 46.5834 30.679 46.9948C28.6284 47.4982 27.3023 47.6578 25.2762 47.664L23.8028 47.6701L23.815 46.9641C23.815 46.5773 23.8519 45.6748 23.8887 44.9688C24.0729 41.5491 24.0361 37.233 23.7966 34.8386C23.6615 33.4633 23.3976 31.7934 23.2502 31.425C23.2195 31.3452 23.3607 31.2777 23.9685 31.0689C25.0798 30.6822 26.0437 30.1971 26.191 29.9577C26.455 29.5034 25.9823 28.8526 25.3806 28.8526C25.2762 28.8526 24.9631 28.9631 24.6746 29.092C23.2993 29.7244 20.5427 30.4673 18.9526 30.633C17.8536 30.7497 16.1468 30.6822 14.9619 30.4673C14.3172 30.3506 13.163 29.9147 12.1991 29.4174C11.0879 28.8403 10.4064 28.0729 10.2038 27.1642C10.0933 26.6731 10.124 25.6908 10.2652 25.1382C10.4187 24.5304 10.8484 23.6463 11.2414 23.1306C12.9911 20.8283 16.6011 18.8329 20.3032 18.133C21.482 17.912 23.152 17.8875 24.4167 18.0778V18.0778ZM43.357 18.2681C43.5781 18.3602 43.6026 18.3848 43.6026 18.5935C43.6149 20.2696 43.578 24.1006 43.5474 24.2603C43.5412 24.3155 43.222 24.3216 43.0869 24.2725C43.0009 24.2418 42.9887 23.9103 42.9887 21.2028C42.9887 19.2627 43.0132 18.1699 43.0501 18.1699C43.0808 18.1699 43.222 18.2129 43.357 18.2681V18.2681ZM46.04 21.6387L46.261 21.7308L46.218 26.8143C46.1689 33.2914 46.1628 33.4818 45.9295 34.0405C45.5488 34.9552 45.5672 35.1394 45.6041 31.1242C45.6164 29.1166 45.6471 27.0844 45.6593 26.6117C45.6716 26.1389 45.6839 24.8067 45.69 23.6463C45.69 22.2465 45.7085 21.5466 45.7514 21.5466C45.7883 21.5466 45.9172 21.5896 46.04 21.6387ZM9.1171 23.1674C9.15394 23.6647 9.14166 23.7138 8.96361 24.1068L8.76715 24.5243L8.69347 23.9103C8.57682 22.928 8.57682 22.885 8.81012 22.7377C8.9145 22.664 9.02501 22.6149 9.04343 22.6271C9.06184 22.6394 9.09868 22.885 9.1171 23.1674V23.1674ZM5.32289 26.8695C5.37815 27.373 5.80791 30.7129 6.02894 32.3521C6.36047 34.8877 6.38503 35.2499 6.23768 35.0965C6.21926 35.078 6.07805 34.2246 5.9307 33.1993C4.97294 26.581 4.97908 26.624 5.0589 26.5748C5.22466 26.4643 5.27992 26.5257 5.32289 26.8695V26.8695ZM9.74333 29.6814C9.78016 29.8349 9.95821 31.4987 9.95821 31.7013C9.95821 31.8732 9.73719 32.0328 9.63896 31.9346C9.60826 31.9039 9.52844 31.3821 9.46705 30.7804C9.39952 30.1726 9.33198 29.5402 9.31356 29.3744L9.27673 29.0675L9.49161 29.3131C9.6144 29.4481 9.72491 29.6139 9.74333 29.6814ZM14.6979 31.996C14.7654 32.0574 14.8084 32.303 14.8637 32.966C14.9558 34.1632 14.968 34.0712 14.7163 34.0712C14.4585 34.0712 14.4646 34.0896 14.3786 33.009C14.2927 31.9101 14.2927 31.9223 14.4585 31.9223C14.5383 31.9223 14.6426 31.9592 14.6979 31.996ZM19.5604 32.0881C19.5726 32.1495 19.6033 32.5179 19.6279 32.9047C19.6463 33.2914 19.7016 34.1632 19.7507 34.8386C19.9226 37.3189 19.9287 37.6321 19.8244 37.6321C19.7077 37.6321 19.6954 37.54 19.5604 35.7902C19.5113 35.0658 19.4192 33.9238 19.3578 33.2546C19.3025 32.5854 19.2657 32.0267 19.2841 32.0144C19.3516 31.9408 19.5297 31.996 19.5604 32.0881ZM8.01813 33.2669C8.05497 33.3221 8.28827 35.2868 8.57682 37.9697C8.66278 38.7801 8.74873 39.5599 8.76715 39.7072L8.79785 39.9712L8.64436 39.873C8.52771 39.7932 8.48473 39.7133 8.48473 39.5721C8.48473 39.1853 8.22073 36.6375 8.01813 35.078C7.90148 34.1939 7.80939 33.4142 7.80939 33.3406C7.80939 33.2116 7.95674 33.1625 8.01813 33.2669V33.2669ZM43.4491 35.8332L43.4061 38.3995L43.2527 38.6267C42.9027 39.1424 42.9211 39.2406 42.9395 36.3673L42.9518 33.7335L43.179 33.5002C43.3018 33.3774 43.4246 33.273 43.4491 33.273C43.4675 33.273 43.4675 34.4272 43.4491 35.8332V35.8332ZM37.7701 39.9037C37.8008 43.4707 37.7947 43.747 37.6964 43.8575C37.635 43.925 37.5798 43.968 37.5614 43.9496C37.5184 43.9005 37.457 36.1217 37.5061 36.0788C37.5307 36.0542 37.592 36.0419 37.6473 36.0481C37.7271 36.0665 37.7455 36.5024 37.7701 39.9037V39.9037ZM17.7185 37.4602C17.7615 37.8408 17.915 39.6642 17.9764 40.5238C18.0132 41.1009 18.0132 41.1193 17.8782 41.1623C17.8045 41.1868 17.7185 41.1807 17.694 41.15C17.651 41.107 17.5159 39.744 17.3502 37.6443L17.3072 37.1409H17.4975C17.6755 37.1409 17.6878 37.1532 17.7185 37.4602V37.4602ZM12.8929 39.609C12.9359 39.652 12.9666 39.8054 12.9666 39.9589C12.9666 40.1186 13.0402 40.9474 13.12 41.8069C13.3533 44.1583 13.3718 44.4776 13.2674 44.4162C13.1078 44.3241 12.9666 44.1829 12.9973 44.1461C13.0095 44.1215 12.985 43.8145 12.9359 43.4646C12.8929 43.1085 12.8376 42.5314 12.8131 42.1753C12.7885 41.8192 12.7333 41.1684 12.6841 40.7325C12.5675 39.6581 12.5736 39.5353 12.7087 39.5353C12.7701 39.5353 12.8499 39.566 12.8929 39.609V39.609ZM15.7969 43.7409C15.8153 43.8759 15.8521 44.3794 15.8767 44.8582C15.9197 45.7792 15.9012 45.8467 15.6495 45.6564C15.5758 45.6011 15.5267 45.3678 15.4531 44.6679C15.3241 43.4032 15.318 43.4523 15.5574 43.4769C15.7355 43.4953 15.76 43.5198 15.7969 43.7409Z" fill="black"/>
<path d="M13.6051 21.0186C12.9666 21.2948 12.9175 22.1605 13.5192 22.4675C13.9551 22.6885 14.3971 22.5841 14.6243 22.2035C15.054 21.5036 14.3541 20.6932 13.6051 21.0186ZM17.7677 21.6079C17.1783 21.9702 17.1783 22.842 17.7677 23.2042C18.351 23.5542 19.1061 23.0937 19.1061 22.3938C19.1061 21.7185 18.3325 21.2641 17.7677 21.6079Z" fill="black"/>
</svg>
